<?xml version="1.0" encoding="utf-8"?>
<!-- Generator: Adobe Illustrator 17.0.0, SVG Export Plug-In . SVG Version: 6.00 Build 0)  -->
<!DOCTYPE svg PUBLIC "-//W3C//DTD SVG 1.1//EN" "http://www.w3.org/Graphics/SVG/1.1/DTD/svg11.dtd">
<svg version="1.1" id="Layer_1" xmlns="http://www.w3.org/2000/svg" xmlns:xlink="http://www.w3.org/1999/xlink" x="0px" y="0px"
	 width="73.268px" height="17px" viewBox="0 0 73.268 17" enable-background="new 0 0 73.268 17" xml:space="preserve">
<rect x="0" y="0" fill="#2D3E53" width="3.411" height="13.226"/>
<polygon fill="#2D3E53" points="6.114,0 9.126,0 9.126,2.525 7.115,5.643 5.228,5.643 6.114,2.525 "/>
<path fill="#2D3E53" d="M20.695,4.952c0.402-0.614,0.878-1.082,1.431-1.404c0.552-0.322,1.159-0.483,1.82-0.483
	c1.14,0,2.008,0.352,2.605,1.054c0.596,0.703,0.895,1.724,0.895,3.065v6.042h-3.189V8.053c0.005-0.077,0.01-0.157,0.013-0.239
	c0.003-0.083,0.004-0.201,0.004-0.354c0-0.703-0.103-1.212-0.31-1.528c-0.207-0.316-0.54-0.474-1.001-0.474
	c-0.602,0-1.068,0.248-1.395,0.744c-0.328,0.497-0.497,1.214-0.509,2.153v4.872h-3.19V8.053c0-1.099-0.095-1.806-0.284-2.122
	c-0.189-0.316-0.526-0.474-1.01-0.474c-0.608,0-1.078,0.249-1.409,0.749c-0.331,0.499-0.496,1.212-0.496,2.139v4.881h-3.189V3.304
	h3.189v1.453c0.39-0.561,0.837-0.983,1.342-1.267s1.062-0.425,1.67-0.425c0.685,0,1.29,0.165,1.816,0.496
	C20.025,3.892,20.424,4.356,20.695,4.952"/>
<path fill="#2D3E53" d="M32.577,11.791V17h-3.172V3.304h3.172v1.453c0.437-0.579,0.921-1.005,1.453-1.28
	c0.532-0.275,1.142-0.412,1.834-0.412c1.223,0,2.226,0.486,3.012,1.457c0.785,0.971,1.177,2.222,1.177,3.752
	s-0.392,2.78-1.177,3.751c-0.787,0.972-1.789,1.457-3.012,1.457c-0.691,0-1.302-0.137-1.834-0.412
	C33.498,12.797,33.014,12.37,32.577,11.791 M34.685,5.369c-0.679,0-1.2,0.249-1.564,0.749c-0.363,0.499-0.545,1.218-0.545,2.157
	s0.182,1.658,0.545,2.157c0.364,0.499,0.885,0.748,1.564,0.748s1.197-0.248,1.554-0.744c0.358-0.496,0.536-1.217,0.536-2.161
	c0-0.945-0.179-1.666-0.536-2.162C35.882,5.617,35.365,5.369,34.685,5.369"/>
<path fill="#2D3E53" d="M46.114,3.065c1.707,0,3.04,0.461,4,1.382s1.439,2.197,1.439,3.827s-0.479,2.906-1.439,3.827
	s-2.293,1.382-4,1.382c-1.713,0-3.052-0.46-4.017-1.382c-0.966-0.921-1.448-2.197-1.448-3.827s0.482-2.906,1.448-3.827
	C43.062,3.526,44.401,3.065,46.114,3.065 M46.114,5.333c-0.702,0-1.24,0.253-1.608,0.758c-0.369,0.505-0.554,1.233-0.554,2.184
	c0,0.951,0.185,1.679,0.554,2.184c0.368,0.505,0.906,0.757,1.608,0.757c0.691,0,1.219-0.252,1.586-0.757
	c0.366-0.505,0.549-1.233,0.549-2.184S48.066,6.596,47.7,6.091C47.333,5.585,46.805,5.333,46.114,5.333"/>
<path fill="#2D3E53" d="M60.226,6.006c-0.278-0.13-0.554-0.226-0.828-0.288c-0.275-0.062-0.551-0.093-0.829-0.093
	c-0.814,0-1.443,0.261-1.882,0.784c-0.44,0.523-0.66,1.271-0.66,2.246v4.571h-3.171V3.304h3.171v1.63
	c0.408-0.65,0.875-1.124,1.403-1.422c0.529-0.298,1.163-0.447,1.901-0.447c0.106,0,0.221,0.005,0.345,0.013
	c0.125,0.009,0.305,0.028,0.541,0.057L60.226,6.006z"/>
<path fill="#2D3E53" d="M65.356,0.487v2.817h3.268v2.268h-3.268V9.78c0,0.461,0.091,0.772,0.274,0.935s0.546,0.244,1.09,0.244h1.63
	v2.268h-2.72c-1.252,0-2.139-0.261-2.662-0.784c-0.523-0.523-0.784-1.41-0.784-2.662V5.572h-1.577V3.304h1.577V0.487H65.356z"/>
<path fill="#2D3E53" d="M70.07,9.798h3.198V12.5l-2.197,3.304h-1.887L70.07,12.5V9.798z M70.07,3.304h3.198v3.428H70.07V3.304z"/>
</svg>
